<?xml version="1.0" standalone="no"?>
<!DOCTYPE svg PUBLIC "-//W3C//DTD SVG 20010904//EN"
 "http://www.w3.org/TR/2001/REC-SVG-20010904/DTD/svg10.dtd">
<svg version="1.0" xmlns="http://www.w3.org/2000/svg"
 width="300.000000pt" height="300.000000pt" viewBox="0 0 300.000000 300.000000"
 preserveAspectRatio="xMidYMid meet">

<g transform="translate(0.000000,300.000000) scale(0.100000,-0.100000)"
fill="#000000" stroke="none">
<path d="M1275 2876 c-307 -59 -558 -194 -761 -409 -178 -189 -285 -395 -341
-657 -25 -119 -25 -401 0 -520 55 -258 157 -457 330 -645 182 -196 399 -325
666 -396 97 -26 141 -32 267 -36 174 -6 264 4 422 48 373 105 710 398 863 750
80 184 109 328 109 539 0 372 -126 677 -389 941 -178 179 -381 295 -626 360
-109 29 -137 32 -295 35 -118 2 -198 -1 -245 -10z m188 -1117 c12 -6 32 -21
45 -32 15 -14 25 -18 30 -10 17 26 79 53 125 53 70 0 109 -20 145 -75 l32 -48
0 -168 0 -167 30 -7 c33 -7 50 -30 50 -69 0 -41 -34 -56 -127 -56 l-83 0 0
218 c0 156 -3 221 -12 230 -20 20 -67 14 -104 -14 l-34 -26 0 -139 c0 -111 3
-139 14 -139 24 0 66 -41 66 -64 0 -12 -7 -32 -16 -44 -14 -20 -23 -22 -105
-22 l-89 0 0 204 c0 113 -4 216 -10 230 -13 34 -53 34 -103 1 l-37 -26 0 -139
0 -138 30 -7 c48 -11 67 -70 33 -107 -14 -15 -32 -18 -122 -18 -122 0 -151 12
-151 61 0 34 31 69 60 69 20 0 20 5 18 157 -3 149 -4 158 -23 161 -31 6 -55
33 -55 61 0 54 33 71 134 71 61 0 76 -3 76 -15 0 -12 6 -12 37 5 42 22 112 26
146 9z"/>
</g>
</svg>
